<svg xmlns="http://www.w3.org/2000/svg" viewBox="0 0 2048 929"><mask id="branda-cut-wsxfy3zj" maskUnits="userSpaceOnUse" x="0" y="0" width="2048" height="929"><rect x="0" y="0" width="2048" height="929" fill="black"></rect>

<path fill-rule="evenodd" transform="translate(0,0)" fill="#FFFFFF" d="M 1352.95 20.2275 C 1395.35 16.9473 1388.29 56.4044 1380.41 82.9256 C 1374.69 102.192 1369.33 122.745 1364.29 142.23 C 1348.46 203.329 1333.08 264.541 1318.15 325.864 C 1316.84 331.186 1307.98 360.169 1308.09 361.884 C 1317.81 366.108 1433.38 239.046 1448.84 226.48 C 1453.57 222.634 1458.76 219.123 1465.01 218.591 C 1471.57 218.033 1477.45 220.651 1482.37 224.859 C 1487.96 229.646 1492.49 236.289 1493.02 243.811 C 1494.83 270.093 1407.41 350.798 1386.56 369.601 C 1371.98 382.753 1355.59 393.866 1342.84 408.918 C 1351.13 417.683 1357.92 428.057 1365.01 437.794 C 1379.85 458.166 1397.42 480.269 1418.36 494.51 C 1428.29 501.261 1439.16 503.362 1450.89 501.022 C 1464.85 498.236 1477.54 488.451 1488.22 479.564 C 1500.55 469.294 1516.66 455.354 1524.5 441.393 C 1529.81 431.932 1529.55 420.106 1532.33 409.764 C 1539.33 383.766 1564.62 286.255 1577.35 267.23 C 1583.12 258.608 1591.71 251.828 1602.05 249.903 C 1609.94 248.435 1618.68 249.473 1625.31 254.241 C 1632.61 259.491 1636.11 268.13 1635.55 276.981 C 1634.68 290.762 1626.99 306.678 1622.73 319.969 C 1609.19 362.265 1581.69 444.13 1588.43 486.595 C 1593.09 491.407 1598.5 499.154 1605.87 496.95 C 1634.3 488.451 1664.63 460.086 1683.19 437.493 C 1686.83 433.051 1687.59 407.439 1689.83 400.853 C 1697.18 361.657 1714.12 329.538 1736.23 297.029 C 1765.44 254.062 1844.38 202.737 1894.68 241.009 C 1907.25 250.719 1915.47 264.998 1917.57 280.74 C 1921.06 307.692 1907.32 341.21 1890.7 361.526 C 1853.26 407.288 1805.2 431.733 1747.71 439.251 C 1747.24 461.282 1751.34 481.891 1773.01 492.799 C 1810.39 511.2 1857.93 481.898 1887.86 460.399 C 1901.71 450.448 1919.21 425.595 1939.04 437.191 C 1944.96 440.731 1949.2 446.516 1950.78 453.228 C 1952.32 459.642 1951.32 468.38 1947.21 473.649 C 1915.84 512.637 1867.04 540.605 1819.12 552.611 C 1772.25 564.35 1706.05 547.459 1694.91 493.991 C 1685.11 499.108 1678.87 506.592 1670.86 513.889 C 1639.5 542.454 1587 574.8 1547.79 541.324 C 1533.99 529.541 1529.93 519.926 1524.63 503.484 C 1522.85 505.545 1521.35 507.955 1519.6 510.051 C 1491.8 543.337 1448.81 572.922 1403.77 557.915 C 1376.95 548.98 1359.62 531.699 1340.85 512.408 C 1325.34 495.122 1304.21 469.549 1293.57 449.12 C 1283.94 460.43 1284.58 465.785 1281.58 479.69 C 1277.69 497.245 1273.93 514.828 1270.3 532.438 C 1267.95 543.777 1266.09 555.032 1262.47 566.159 C 1255.08 588.72 1225.78 595.621 1209.57 578.255 C 1194.48 562.086 1210.17 536.66 1210.68 519.804 L 1209.49 519.257 C 1199.99 523.484 1184.74 540.719 1174.77 548.817 C 1159.35 562.568 1142.88 573.542 1125.76 584.777 C 1081.6 613.755 1018.42 629.534 975.665 589.675 C 969.674 584.089 961.263 568.32 954.155 566.572 C 951.568 567.769 943.87 577.666 940.769 581.245 C 911.351 615.185 856.075 658.356 811.947 623.864 C 796.971 612.159 795.514 594.358 794.857 575.927 C 786.057 583.818 782.159 588.81 774.765 597.917 C 751.496 626.573 718.911 654.076 680.869 658.056 C 663.969 659.699 644.871 654.02 631.998 642.794 C 603.025 617.526 603.163 580.283 607.806 545.658 C 616.139 485.277 641.787 428.603 681.647 382.489 C 709.306 350.354 744.237 327.159 787.472 323.172 C 800.879 321.936 822.199 324.33 832.477 333.066 C 837.976 337.74 844.22 343.921 850.066 348.987 C 853.376 347.622 857.272 346.52 860.834 346.021 C 866.302 345.254 872.343 346.467 876.753 349.875 C 883.486 355.078 886.528 364.485 886.46 372.739 C 886.349 386.271 880.915 401.107 877.742 414.258 C 869.952 446.538 847.534 530.915 851.797 560.889 C 852.539 566.107 854.25 572.717 858.802 575.955 C 861.55 577.909 865.042 578.206 868.281 577.593 C 886.463 574.154 910.92 545.161 923.632 532.062 C 929.862 525.642 939.866 517.736 943.231 509.445 C 947.815 498.149 947.308 479.145 949.212 466.516 C 955.53 424.607 972.529 382.683 995.958 347.48 C 1019.75 311.735 1054.12 279.189 1097.54 270.639 C 1117.68 266.674 1139.65 268.207 1157.04 279.956 C 1169.92 288.665 1178.01 301.703 1180.94 316.926 C 1183.91 332.388 1182.44 352.89 1173.27 366.161 C 1168.26 373.41 1160.59 380.135 1151.71 381.687 C 1145.63 382.749 1137.36 382.21 1132.24 378.387 C 1122 370.741 1128.74 352.592 1127.14 341.722 C 1126.45 337.035 1124.5 331.839 1120.5 328.964 C 1115.92 325.664 1107.27 326.511 1102.02 327.437 C 1082.65 330.852 1062.92 353.125 1052.34 368.488 C 1025.78 407.065 1001.81 468.738 1010.75 515.822 C 1013.18 528.619 1018.95 542.21 1030.19 549.641 C 1040.39 556.389 1052.92 556.188 1064.45 553.714 C 1079.89 550.4 1095.35 543.275 1108.86 535.212 C 1127.26 524.224 1217.41 454.146 1225.1 439.187 C 1232.67 424.451 1235.56 395.911 1239.9 378.668 C 1262.7 287.892 1283.44 196.593 1307.08 106.024 C 1311.29 89.8792 1319.59 48.2352 1327.56 36.3857 C 1333.84 27.0574 1342.15 22.3071 1352.95 20.2275 z M 783.473 379.194 C 801.568 377.265 810.62 382.295 819.362 398.242 C 814.116 412.661 810.119 427.687 804.447 442.197 C 783.189 496.574 752.147 561.814 701.674 594.416 C 688.669 600.877 674.26 599.605 670.906 583.065 C 662.731 542.752 682.839 495.183 701.072 459.598 C 717.705 427.134 747.192 390.12 783.473 379.194 z M 1839.66 282.169 C 1863.5 279.445 1866.97 294.077 1858.46 313.41 C 1843.61 347.142 1807.66 369.692 1774.75 383.478 C 1772.7 384.443 1770.62 385.34 1768.51 386.169 C 1764.29 387.848 1759.52 390.172 1755.38 388.393 C 1753.86 383.37 1759.45 373.846 1761.48 369.109 C 1775.74 335.844 1803.4 293.4 1839.66 282.169 z"></path>


<path fill-rule="evenodd" transform="translate(0,0)" fill="#FFFFFF" d="M 1407.67 643.441 C 1455.04 640.703 1526.65 654.347 1537.53 709.942 C 1538.62 715.521 1538.63 722.448 1538.75 728.151 C 1552.35 727.918 1562.56 723.382 1575.93 720.661 C 1596.23 716.674 1616.68 713.464 1637.22 711.036 C 1659.99 708.533 1681.81 707.5 1704.49 705.82 C 1718.95 704.748 1732.2 701.518 1747.5 700.856 C 1766.63 700.027 1784.09 700.154 1803.17 700.504 C 1813.65 700.505 1824.73 698.085 1835.18 698.731 C 1897.14 702.565 1958.95 709.573 2020.71 715.634 C 2032.85 716.827 2042.9 726.944 2043.72 739.185 C 2045.29 756.967 2044.23 787.903 2026.18 797.643 C 2016.44 802.903 1986.14 797.84 1974.75 796.797 L 1890.26 788.245 C 1855.55 784.659 1825.85 786.378 1791.63 775.363 C 1779.79 771.549 1756.97 771.993 1744.02 769.189 C 1716.55 763.242 1690.41 763.654 1662.68 766.951 C 1628.67 769.973 1595.67 772.109 1562.19 780.754 C 1548.05 784.407 1528.53 787.188 1514.82 792.761 C 1499.94 802.409 1489.2 814.773 1473.86 824.358 C 1401.7 869.41 1276.73 891.552 1211.5 824.328 C 1188.77 800.9 1194.3 775.901 1196.27 746.711 C 1171.15 746.508 1141.94 745.634 1117.06 747.145 C 1092.06 748.663 1065.39 751.582 1040.24 753.749 C 1005.52 755.88 970.109 762.194 935.847 767.986 C 815.673 788.302 699.76 820.378 584.732 860.363 C 554.102 871.011 523.293 882.062 493.5 894.888 C 473.861 903.342 454.512 914.305 434.317 921.211 C 427.905 923.404 421.217 924.688 414.418 924.205 C 406.98 923.677 399.086 921.073 394.114 915.234 C 388.986 909.211 388.067 898.889 388.675 891.2 C 389.26 883.796 393.404 878.263 398.964 873.545 C 413.255 861.422 492.078 832.275 514.467 823.767 C 670.008 764.773 831.69 723.457 996.465 700.598 C 1046.16 694 1098.98 688.87 1149.09 688.43 C 1179.81 688.161 1214.46 694.927 1245.25 697.549 C 1252.26 693.789 1260.36 686.125 1270.79 680.72 C 1313.02 658.83 1360.26 645.623 1407.67 643.441 z M 1398.7 697.404 C 1419.32 695.305 1463.46 696.815 1476.93 713.754 C 1510.8 756.368 1423.61 761.325 1401.75 760.075 C 1378.75 758.214 1357.13 747.139 1337.93 735.048 C 1328.56 729.145 1324.27 727.01 1313.39 725.606 L 1316.53 713.383 C 1334.74 711.141 1344.21 707.473 1361.61 703.384 C 1373.82 700.559 1386.22 698.561 1398.7 697.404 z M 1835.84 720.843 C 1845.7 720.641 1857.93 724.865 1868.95 725.706 L 2019.88 737.772 C 2020.09 751.967 2019.75 762.683 2017.83 777.011 C 1986.74 777.31 1948.14 768.179 1915.91 768.229 C 1903.73 768.248 1887.8 764.179 1874.96 763.409 C 1861.24 762.587 1847.61 761.681 1833.88 760.996 C 1834.3 747.788 1835.43 734.368 1835.84 720.843 z M 1353.18 812.047 C 1322.71 812.31 1281.75 814.387 1259.11 788.406 C 1254.42 783.03 1250.21 764.676 1257.21 759.663 C 1267.6 760.045 1313.23 785.659 1325.82 790.097 C 1337.59 794.247 1339.09 794.906 1352.82 797.298 C 1356.44 797.802 1360.72 798.254 1364.16 799.294 C 1368.52 803.74 1370.1 805.783 1373.68 810.886 C 1366.62 811.532 1360.28 812.224 1353.18 812.047 z"></path>



<path transform="translate(0,0)" fill="#000000" d="M 1352.82 797.298 C 1356.44 797.802 1360.72 798.254 1364.16 799.294 C 1368.52 803.74 1370.1 805.783 1373.68 810.886 C 1366.62 811.532 1360.28 812.224 1353.18 812.047 C 1353.79 809.266 1353.6 800.253 1352.82 797.298 z"></path>
<path transform="translate(0,0)" fill="#FFFFFF" d="M 303.789 11.2733 C 356.222 6.84673 330.826 63.2356 322.705 91.4094 L 298.974 176.593 C 295.424 189.107 289.456 205.536 286.88 217.338 C 296.633 217.078 310.359 212.98 320.583 211.087 C 355.035 204.38 389.577 198.145 424.199 192.386 C 439.528 189.789 457.332 184.974 472.895 185.755 C 479.206 186.072 485.61 190.138 489.752 194.722 C 494.773 200.278 497.636 207.742 497.075 215.26 C 496.302 225.612 489.336 236.009 480.407 241.158 C 464.873 250.116 443.395 250.996 426.034 254.145 C 388.233 261.002 350.41 267.582 312.728 275.101 C 302.758 277.09 292.331 277.873 282.507 280.399 C 278.858 281.337 274.316 282.684 271.476 285.293 C 259.412 296.376 210.805 519.882 204.653 554.033 C 199.444 582.955 194.646 612.739 193.193 642.096 C 192.098 664.194 188.453 702.475 204.51 719.864 C 208.786 724.495 214.047 727.926 220.505 728.083 C 240.77 728.577 271.359 698.308 283.497 683.885 C 292.543 673.137 300.132 660.741 310.371 651.083 C 315.391 646.347 320.924 642.742 328.114 643.08 C 335.94 643.448 340.815 648.894 345.641 654.338 C 349.347 677.371 342.232 686.128 330.14 704.766 C 305.134 741.602 259.228 787.989 212.534 791.12 C 110.28 797.975 122.435 661.384 131.321 594.501 C 136.683 554.147 145.165 513.263 153.915 473.508 C 159.829 445.326 166.342 417.273 173.45 389.367 C 176.957 375.886 195.399 309.557 194.623 301.446 C 192.82 299.643 187.467 300.904 184.832 301.398 C 134.967 310.736 85.9453 324.22 36.5156 335.001 C 23.8963 337.754 9.4576 325.4 6.95199 313.201 C -1.29209 273.063 56.454 267.384 83.9952 261.129 L 175.614 239.656 C 185.312 237.457 194.353 235.696 204.16 234.444 C 216.119 232.917 218.528 214.972 221.577 205.433 C 224.091 197.569 226.314 188.441 228.492 180.306 C 236.825 148.523 245.906 116.941 255.727 85.5862 C 264.648 56.3853 269.882 19.4518 303.789 11.2733 z"></path>
<path transform="translate(0,0)" fill="#FFFFFF" d="M 599.565 309.385 C 616.784 306.726 636.56 310.334 645.395 327.104 C 649.746 335.282 650.613 344.87 647.798 353.695 C 643.721 366.186 634.176 372.605 623.3 378.264 C 617.258 377.319 608.891 374.301 603.753 373.464 C 588.456 370.971 564.231 386.037 553.489 396.005 C 499.846 445.777 469.191 514.826 454.363 584.81 C 451.102 600.176 448.179 615.612 445.597 631.106 C 444.043 639.949 442.724 652.072 439.926 660.221 C 430.32 688.201 396.674 693.885 379.673 669.331 C 372.637 649.542 383.569 592.395 386.761 570.131 L 402.087 464.404 L 411.37 403.606 C 415.707 374.835 417.79 334.058 462.427 346.09 C 487.294 352.793 467.205 400.517 469.03 404.976 C 480.194 404.401 484.347 388.411 490.642 380.795 C 518.992 346.49 553.386 314.278 599.565 309.385 z"></path>
<path transform="translate(0,0)" fill="#FFFFFF" d="M 1638.05 108.313 C 1648.87 107.377 1658.32 106.627 1667.77 113.024 C 1687.36 126.288 1684.29 156.339 1671.51 173.302 C 1663.06 184.517 1654.99 191.387 1640.8 193.769 C 1579.34 198.737 1590.97 123.329 1638.05 108.313 z"></path>
</mask><rect x="0" y="0" width="2048" height="929" fill="#000000" mask="url(#branda-cut-wsxfy3zj)"></rect></svg>